# xmcd CD database file
#
# Track frame offsets:
#	150
#	20648
#	40686
#	59664
#	80359
#	99983
#	115239
#	134743
#	156193
#	170843
#	192901
#	214435
#	237068
#	252872
#	272869
#
# Disc length: 3899 seconds
#
# Revision: 0
# Processed by: cddbd v1.4PL0 Copyright (c) Steve Scherf et al.
# Submitted via: CDex 1.50beta9
#
DISCID=db0f390f
DTITLE=Bob De Angelis - In A Sentimental Mood
DYEAR=2003
DGENRE=Jazz
TTITLE0=In a sentimental mood
TTITLE1=stranger on the shore
TTITLE2=tenderly
TTITLE3=blue velvet
TTITLE4=what a wonderful world
TTITLE5=edelweiss
TTITLE6=what a difference a day makes
TTITLE7=I'm in the mood for love
TTITLE8=que sea sera
TTITLE9=la vie en rose
TTITLE10=it's not for me to say
TTITLE11=I only have eyes for you
TTITLE12=please release me
TTITLE13=you'll never know
TTITLE14=can't help falling in love
EXTD=YEAR: 2003
EXTT0=
EXTT1=
EXTT2=
EXTT3=
EXTT4=
EXTT5=
EXTT6=
EXTT7=
EXTT8=
EXTT9=
EXTT10=
EXTT11=
EXTT12=
EXTT13=
EXTT14=
PLAYORDER=
